# xmcd
#
# Track frame offsets:
# 150
# 15377
# 29782
# 46655
# 65362
# 87857
# 116382
# 131517
# 147947
# 164355
# 182652
# 200312
# 219417
# 231362
#
# Disc length: 3424 seconds
#
#
# Revision: 1
# Processed by: cddbd v1.5.2PL0 Copyright (c) Steve Scherf et al.
# Submitted via: FreeRIP 2.951 
#
DISCID=ba0d5e0e
DTITLE=BLUES ETÍLICOS - THE BEST OF BLUES ETÍLICOS
DYEAR=1992
DGENRE=Blues
TTITLE0=BLUES ETÍLICOS - Shame, Shame, Shame
TTITLE1=BLUES ETÍLICOS - If I Had Possession Over Judgment Day
TTITLE2=BLUES ETÍLICOS - Hard Times
TTITLE3=BLUES ETÍLICOS - No Way (Bonus Track)
TTITLE4=BLUES ETÍLICOS - San Ho Zay
TTITLE5=BLUES ETÍLICOS - Last Night
TTITLE6=BLUES ETÍLICOS - O Louco Da Cidade
TTITLE7=BLUES ETÍLICOS - Pelicano
TTITLE8=BLUES ETÍLICOS - Crossroads
TTITLE9=BLUES ETÍLICOS - Driftin' Blues
TTITLE10=BLUES ETÍLICOS - What's On Your Mind
TTITLE11=BLUES ETÍLICOS - My Babe She Said She's Gonna Leave Me
TTITLE12=BLUES ETÍLICOS - No Way
TTITLE13=BLUES ETÍLICOS - How Many More Time
EXTD=
EXTT0=
EXTT1=
EXTT2=
EXTT3=
EXTT4=
EXTT5=
EXTT6=
EXTT7=
EXTT8=
EXTT9=
EXTT10=
EXTT11=
EXTT12=
EXTT13=
PLAYORDER=
